<?xml version="1.0" encoding="utf-8"?>
<!-- Generator: Adobe Illustrator 25.2.1, SVG Export Plug-In . SVG Version: 6.00 Build 0)  -->
<svg version="1.1" id="图层_1" xmlns="http://www.w3.org/2000/svg" xmlns:xlink="http://www.w3.org/1999/xlink" x="0px" y="0px"
	 viewBox="0 0 1366 768" style="enable-background:new 0 0 1366 768;" xml:space="preserve">
<style type="text/css">
	.st0{fill:#ED8F56;stroke:#000000;stroke-width:6;stroke-miterlimit:10;}
	.st1{stroke:#000000;stroke-width:6;stroke-miterlimit:10;}
</style>
<circle class="st0" cx="376.19" cy="358.77" r="318.4"/>
<circle class="st0" cx="376.19" cy="358.77" r="287.9"/>
<circle class="st0" cx="376.19" cy="343.01" r="154.58"/>
<circle class="st1" cx="376.19" cy="343.01" r="135.94"/>
<path class="st0" d="M387,222.81l60.54,173.7c2.59,7.43-2.93,15.2-10.8,15.2H315.65c-7.87,0-13.39-7.77-10.8-15.2l60.54-173.7
	C368.96,212.58,383.43,212.58,387,222.81z"/>
<path class="st0" d="M399.07,454.57h-45.74c-6.67,0-12.08-5.41-12.08-12.08v-15.44c0-6.67,5.41-12.08,12.08-12.08h45.74
	c6.67,0,12.08,5.41,12.08,12.08v15.44C411.15,449.16,405.74,454.57,399.07,454.57z"/>
</svg>
